<svg width="18" height="19" viewBox="0 0 18 19" fill="none" xmlns="http://www.w3.org/2000/svg">
<path d="M1.94214 2.38879H3.19001C3.96454 2.38879 4.57413 3.05576 4.50958 3.82312L3.91434 10.9661C3.81393 12.135 4.73907 13.1391 5.91522 13.1391H13.553C14.5857 13.1391 15.4893 12.2928 15.5682 11.2673L15.9555 5.88855C16.0416 4.69806 15.1379 3.72988 13.9403 3.72988H4.68171" stroke="#003585" stroke-width="1.47531" stroke-miterlimit="10" stroke-linecap="round" stroke-linejoin="round"/>
<path d="M12.1617 16.7321C12.6568 16.7321 13.0582 16.3307 13.0582 15.8356C13.0582 15.3405 12.6568 14.9391 12.1617 14.9391C11.6666 14.9391 11.2653 15.3405 11.2653 15.8356C11.2653 16.3307 11.6666 16.7321 12.1617 16.7321Z" stroke="#003585" stroke-width="1.47531" stroke-miterlimit="10" stroke-linecap="round" stroke-linejoin="round"/>
<path d="M6.42447 16.7321C6.91957 16.7321 7.32092 16.3307 7.32092 15.8356C7.32092 15.3405 6.91957 14.9391 6.42447 14.9391C5.92937 14.9391 5.52802 15.3405 5.52802 15.8356C5.52802 16.3307 5.92937 16.7321 6.42447 16.7321Z" stroke="#003585" stroke-width="1.47531" stroke-miterlimit="10" stroke-linecap="round" stroke-linejoin="round"/>
<path d="M6.96228 6.69177H15.5682" stroke="#003585" stroke-width="1.47531" stroke-miterlimit="10" stroke-linecap="round" stroke-linejoin="round"/>
</svg>
